<svg xmlns="http://www.w3.org/2000/svg" xmlns:xlink="http://www.w3.org/1999/xlink" width="400" height="102.857"><g fill-rule="evenodd"><path fill="#047cc4" d="M29.111 29.278c-.061.061-.111 10.073-.111 22.25v22.139h26.113l.192-.422c.106-.233.241-.722.299-1.087.059-.366.169-.704.246-.752.077-.047.19-.458.25-.913.06-.454.175-.826.255-.826.08 0 .145-.146.145-.324 0-.178.066-.364.147-.414.082-.051.199-.43.261-.844.062-.413.177-.752.257-.752.079 0 .196-.412.259-.916.063-.505.176-.917.252-.917.075 0 .188-.338.25-.752s.174-.79.25-.837c.076-.047.188-.421.25-.832.061-.41.178-.746.26-.746.081 0 .147-.225.147-.5 0-.286.089-.502.209-.505.117-.003.067-.112-.116-.25-.272-.206-1.412-.245-7.208-.245h-6.885V57.66l7.5.045c4.125.025 7.5-.016 7.5-.09s.072-.091.159-.037c.143.089.456-.986.375-1.286-.018-.069.035-.125.118-.125.084 0 .206-.316.271-.702.065-.386.184-.836.265-1l.298-.607c.084-.17.205-.658.269-1.084.064-.425.174-.774.245-.774.071 0 .18-.337.242-.75.061-.413.174-.75.249-.75.076 0 .189-.413.252-.917s.176-.916.25-.916c.075 0 .19-.357.255-.792.065-.435.176-.829.246-.875.069-.046.179-.44.243-.875l.117-.792H45v-3.164l9.958-.043 9.959-.043.052-.458c.029-.252.123-.458.209-.458.085 0 .155-.159.155-.353 0-.332.268-1.261.777-2.692.123-.346.223-.815.223-1.042 0-.227.069-.413.152-.413.084 0 .205-.319.269-.709.064-.389.174-.783.243-.875.069-.091.179-.457.243-.812.064-.355.181-.767.259-.917.126-.238.216-.463.444-1.104a7.94 7.94 0 00.164-.75c.058-.321.163-.621.233-.667.07-.046.181-.439.246-.875l.119-.791H48.963c-10.857 0-19.791.05-19.852.111m60.722 6.388v6.501h12.665l.043 15.708.042 15.708 10.407.043c5.724.024 10.47-.02 10.548-.097.205-.206-.021-.668-.384-.783-.173-.055-.614-.395-.978-.756-.365-.361-.753-.657-.864-.657-.11 0-.158-.043-.105-.096.053-.052-.141-.343-.431-.646a71.282 71.282 0 01-2.158-2.418 4.98 4.98 0 01-.368-.526 93.605 93.605 0 00-.833-1.327c-.367-.574-.677-1.088-.689-1.141-.112-.476-.293-.846-.414-.846-.081 0-.147-.095-.147-.21 0-.116-.15-.491-.334-.833-.183-.342-.333-.772-.333-.956 0-.184-.074-.334-.165-.334-.09 0-.212-.3-.271-.667-.059-.366-.172-.666-.252-.666-.08 0-.145-.225-.145-.5s-.067-.5-.148-.5c-.081 0-.201-.507-.267-1.125-.066-.619-.205-1.178-.309-1.243-.294-.183-.264-7.934.031-8.116.122-.075.205-.186.184-.246-.072-.215.182-1.954.328-2.234.081-.158.279-.736.44-1.286.161-.55.393-1.237.517-1.526.123-.288.224-.635.224-.771 0-.135.112-.339.25-.453.137-.114.25-.386.25-.604 0-.218.066-.396.147-.396.082 0 .28-.282.44-.625.161-.344.43-.821.598-1.061.168-.239.257-.483.199-.541-.059-.059-.037-.107.049-.107.085 0 .34-.3.567-.666.226-.367.469-.667.539-.667.07 0 .127-.068.127-.151 0-.142.483-.727 1.542-1.867.252-.271.458-.566.458-.654 0-.089.096-.161.213-.161.244 0 .796-.589.69-.736-.038-.054-.021-.062.038-.018s.348-.125.643-.375l1.077-.913c.297-.252.645-.458.773-.458s.233-.075.233-.167c0-.092.112-.167.25-.167s.25-.07.25-.155c0-.086.169-.208.375-.273.206-.064.412-.164.458-.222.145-.183 2.213-1.12 3.167-1.434 1.487-.491 1.837-.654 1.778-.831-.037-.111-6.987-.182-20.5-.21l-20.445-.043v6.501m61 15.751v22.25H164.5l.005-12.959c.005-11.867.075-13.923.401-11.666.063.435.185.791.271.791.086 0 .156.225.156.5s.068.5.151.5c.083 0 .203.375.266.833.063.459.176.872.251.918.134.083.425 1.38.364 1.624-.018.069.035.125.116.125s.2.349.264.775c.113.755.166.914.559 1.676.104.203.239.69.299 1.084.06.393.171.794.246.89.075.096.187.49.248.875.062.385.169.7.239.7.119 0 .421 1.438.359 1.709-.015.068.047.125.138.125.092 0 .167.141.167.313 0 .172.112.582.25.911.137.329.25.793.25 1.03 0 .238.068.39.151.339.083-.052.203.281.266.74.063.458.174.87.246.914.073.045.184.431.248.858.064.428.18.897.258 1.044.141.268.353.966.932 3.059.171.619.369 1.125.439 1.125.069 0 .128.169.129.375.006.827-.434.797 11.092.751l10.822-.043.043-22.203.042-22.203-6.876.037-6.875.036-.085 13c-.047 7.15-.103 12.836-.125 12.635-.022-.201-.107-.407-.189-.457-.125-.078-.248-.582-.379-1.553-.015-.115-.09-.208-.167-.208-.076 0-.139-.207-.14-.459 0-.252-.113-.673-.25-.935-.137-.263-.249-.657-.249-.875 0-.219-.065-.398-.145-.398-.08 0-.194-.372-.255-.826-.06-.455-.182-.872-.271-.927-.089-.055-.162-.264-.163-.465-.001-.201-.105-.565-.232-.809-.128-.243-.284-.825-.348-1.291-.064-.467-.185-.849-.268-.849-.083 0-.151-.153-.151-.341 0-.188-.111-.556-.246-.818a3.094 3.094 0 01-.286-.992c-.021-.283-.093-.515-.16-.515-.066 0-.172-.339-.234-.752-.062-.414-.174-.791-.25-.838-.076-.046-.189-.421-.25-.833-.062-.411-.172-.785-.244-.83-.073-.044-.184-.456-.247-.914s-.182-.875-.265-.926c-.083-.052-.151-.239-.151-.417s-.066-.324-.146-.324c-.079 0-.194-.375-.255-.833-.061-.458-.174-.833-.25-.833-.077 0-.189-.372-.249-.827-.061-.454-.176-.867-.257-.917-.081-.05-.2-.41-.264-.799-.065-.389-.175-.782-.246-.874-.071-.092-.183-.504-.25-.917-.203-1.258.672-1.166-11.187-1.166h-10.73v22.25M82.247 38.042c-.322.887-.747 2.391-.747 2.646 0 .172-.066.312-.148.312-.081 0-.2.349-.264.774-.064.426-.185.914-.269 1.084l-.298.606c-.08.163-.195.557-.255.875-.144.757-.603 2.335-.784 2.695-.078.157-.191.588-.25.959-.059.37-.165.674-.234.674-.07 0-.176.328-.236.73a9.993 9.993 0 01-.418 1.574C77.94 52.077 77.625 52 82.542 52h4.321l-.118-.708c-.065-.39-.184-.734-.265-.764-.081-.031-.147-.197-.147-.369 0-.173-.114-.673-.254-1.112a100.4 100.4 0 01-.523-1.714 19.994 19.994 0 00-.403-1.25 6.437 6.437 0 01-.246-.916c-.062-.321-.168-.659-.237-.75-.068-.092-.174-.489-.234-.883-.06-.393-.174-.843-.253-1-.175-.346-.512-1.586-.632-2.326-.048-.298-.15-.541-.226-.541-.076 0-.19-.357-.255-.792-.135-.918-.615-1.404-.823-.833m53.628 5.901c-.298.043-.542.142-.542.22 0 .077-.3.192-.666.254-.367.062-.667.172-.667.245 0 .073-.131.18-.292.238-.546.197-1.04.546-.929.657.06.06.022.11-.084.11-.366 0-2.078 1.869-2.273 2.481-.061.194-.181.352-.267.352-.085 0-.155.082-.155.183 0 .172-.287.884-.725 1.8-.23.479-.263 4.941-.041 5.434.082.183.169.423.192.532.086.408.642 1.551.755 1.551.064 0 .16.173.213.385.179.714 2.165 2.567 3.273 3.053l1.047.456c.347.15.924.273 1.282.273s.699.077.757.171c.117.189 2.08.183 2.08-.006 0-.065.43-.163.956-.217.526-.055.982-.178 1.014-.274.032-.096.239-.174.461-.174.221 0 .403-.067.403-.149 0-.082.171-.191.38-.244.208-.052.64-.321.958-.596l.825-.715c.136-.117.3-.196.365-.175.065.021.169-.122.231-.317.062-.196.292-.522.51-.724.219-.203.397-.454.397-.558 0-.104.069-.189.154-.189.084 0 .203-.225.263-.5s.173-.5.251-.5c.078 0 .193-.413.256-.919.064-.505.182-.96.262-1.01.19-.117.194-3.523.004-3.64-.079-.049-.188-.415-.243-.814-.097-.71-.819-2.318-1.236-2.754-.116-.121-.211-.3-.211-.397 0-.098-.187-.352-.416-.564-.229-.212-.417-.433-.417-.489 0-.162-.387-.504-.708-.625-.161-.061-.292-.176-.292-.256 0-.08-.299-.288-.665-.464-.365-.175-.665-.368-.666-.43-.001-.061-.246-.164-.544-.229-.298-.065-.59-.194-.649-.286-.113-.177-3.657-.315-4.601-.18M75.111 61.611c-.061.061-.111.286-.111.5 0 .214-.068.389-.152.389-.084 0-.205.316-.271.702-.116.687-.172.85-.54 1.569-.099.195-.229.645-.288 1-.058.355-.169.796-.246.979-.077.183-.306.896-.509 1.583-.203.688-.43 1.4-.505 1.584a6.106 6.106 0 00-.249.916c-.062.321-.159.659-.217.75-.125.201-.505 1.582-.516 1.875-.012.362 21.469.299 21.608-.063a.7.7 0 00-.061-.542c-.091-.148-.303-.795-.471-1.436-.167-.642-.367-1.25-.444-1.35-.076-.101-.188-.551-.248-1-.06-.45-.163-.855-.229-.9-.066-.046-.201-.421-.3-.834-.461-1.924-.602-2.422-.708-2.5-.062-.046-.167-.477-.233-.958-.065-.481-.187-.875-.27-.875-.083 0-.151-.225-.151-.5s-.075-.5-.167-.5c-.091 0-.166-.113-.166-.25 0-.263-14.295-.399-14.556-.139"/><path fill="#040404" d="M253.905 29.221c-.047.121-.063.928-.037 1.792l.049 1.57 1.791.048 1.792.047V29h-1.755c-1.304 0-1.777.057-1.84.221M224.04 39.958l.043 10.792 3.989.045c2.546.028 4.05-.017 4.158-.125.094-.094.792-.17 1.553-.17.761 0 1.384-.065 1.384-.145 0-.08.3-.194.666-.252.367-.059.667-.181.667-.272 0-.09.11-.164.244-.164.294 0 1.756-1.49 1.756-1.789 0-.116.057-.211.126-.211.61 0 .915-4.554.374-5.6-.491-.949-1.737-2.204-2.333-2.35-.708-.173-.877-.628-.287-.776.443-.111 1.453-.97 1.453-1.236 0-.099.132-.312.292-.473.371-.371.446-4.902.083-5.024-.114-.038-.208-.209-.208-.38s-.094-.371-.208-.445c-.115-.073-.289-.278-.386-.455a1.534 1.534 0 00-.491-.5 4.826 4.826 0 01-.653-.476 1.973 1.973 0 00-.759-.385 3.158 3.158 0 01-.709-.244c-.163-.088-2.582-.156-5.543-.156h-5.253l.042 10.791m55.627-.125V50.5h3v-4.657c0-2.561.065-4.697.144-4.746.08-.049.182-.421.228-.827.094-.834.709-1.557 1.815-2.134 1.235-.643 3.813-.213 3.813.637 0 .11.08.226.179.259.098.033.221.529.273 1.102.052.573.159 1.082.238 1.131.079.048.143 2.146.143 4.662V50.5h3.167v-5.99c0-3.814-.061-6.028-.167-6.093-.092-.057-.167-.286-.167-.51 0-.224-.075-.407-.166-.407-.092 0-.167-.115-.167-.255a.405.405 0 00-.244-.349.654.654 0 01-.332-.373c-.049-.153-.445-.457-.881-.676l-1.109-.555c-.413-.207-3.946-.206-4.081.001-.056.087-.384.211-.728.274-.344.063-.625.186-.625.274 0 .087-.102.159-.227.159-.124 0-.367.188-.539.417-.535.712-.567.52-.567-3.417v-3.833h-3v10.666m27 0V50.5h3V29.167h-3v10.666m-7.125-8.382c-.207.04-.375.142-.375.227 0 .086-.188.155-.417.155-.229 0-.417.07-.417.156s-.206.179-.458.208l-.458.053-.048 1.625-.048 1.625h-2.654v2.333h2.654l.048 5.778c.037 4.44.096 5.794.256 5.847a.334.334 0 01.208.298c0 .126.282.359.625.519.344.16.669.353.722.43.053.076 1.103.117 2.333.092l2.237-.047.048-1.274.049-1.275-1.43-.059c-1.545-.063-1.743-.179-1.748-1.017-.001-.252-.077-.458-.169-.458-.107 0-.167-1.584-.167-4.417v-4.417h3.5V35.5h-3.5v-2.083c0-1.568-.051-2.078-.208-2.061a9.545 9.545 0 00-.583.095m-66.375.716c0 .091.137.166.305.166.936 0 1.951 2.012 1.614 3.199-.533 1.88-1.417 2.298-5.128 2.424l-2.791.095V32h3c1.889 0 3 .062 3 .167m84.208 2.945c-.298.042-.542.146-.542.232 0 .086-.101.156-.225.156-.354 0-1.608.975-1.608 1.251 0 .137-.074.249-.165.249-.09 0-.212.3-.271.667-.059.366-.172.666-.252.666-.08 0-.145.341-.145.756v.756l1.625-.047 1.625-.048.051-.625c.029-.344.114-.625.189-.625.076 0 .173-.136.217-.303.201-.77 2.557-1.149 3.718-.598.762.361.952.63 1.086 1.54.064.427.168 1.003.231 1.278l.116.5-1.721.026c-2.027.032-3.637.202-3.637.384 0 .072-.308.18-.684.24-.617.098-2.316 1.034-2.316 1.275 0 .054-.225.35-.5.658-.275.308-.5.692-.5.854 0 .161-.075.339-.167.396-.093.057-.167.835-.167 1.76 0 .993.067 1.657.167 1.657.092 0 .167.149.167.331 0 .441 1.399 1.781 2.278 2.182 1.372.625 5.722.347 5.722-.366 0-.081.109-.147.243-.147s.434-.206.667-.457c.421-.455.423-.455.423-.071 0 .689.365.861 1.821.861h1.346v-6.157c0-3.386-.066-6.197-.145-6.246-.08-.05-.187-.298-.238-.552-.092-.459-1.262-1.877-1.55-1.879-.083-.001-.376-.127-.651-.28-.499-.278-4.812-.468-6.208-.274m-67.542.199c0 .079-.503.184-1.119.233-.616.05-1.147.172-1.181.273a.287.287 0 01-.257.183c-.108 0-.402.191-.653.423l-.456.424V35.5h-3.5v.49c0 .27.075.537.166.593.107.066.167 2.585.167 7.01V50.5h3.122l.077-4.906c.047-3.072.141-4.988.251-5.125.097-.12.232-.401.3-.623.256-.832 1.404-1.513 2.553-1.513.372 0 .712-.092.766-.208.078-.167.117-.167.195 0 .053.115.353.208.667.208h.569V36.95c0-.854-.077-1.46-.2-1.583-.228-.228-1.467-.276-1.467-.056m15.75.022c-.056.092-.231.167-.387.167-.316 0-1.421.569-2.106 1.083-.495.373-1.59 2.071-1.59 2.467 0 .14-.094.287-.208.325-.158.053-.209.895-.209 3.458s.051 3.406.209 3.459c.114.038.208.24.208.449 0 .21.15.571.333.804.184.234.334.477.334.543 0 .237 1.261 1.368 1.666 1.494.23.071.47.213.536.315.079.124 1.001.186 2.766.186 2.867 0 3.226-.084 4.064-.951.613-.635.634-.615.634.618 0 .611-.072 1.083-.166 1.083-.092 0-.167.202-.167.448 0 .629-.587 1.74-1.127 2.136-1.237.904-5.04.222-5.04-.904 0-.099-.075-.18-.166-.18-.092 0-.167-.225-.167-.5v-.5h-3.476l.093.959c.05.527.157 1.029.237 1.116a.653.653 0 01.146.386c0 .323.83 1.373 1.085 1.373.117 0 .256.112.309.25.052.137.279.25.504.25.224 0 .439.093.477.208.097.289 7.246.302 7.424.013.067-.107.327-.246.578-.31.251-.063.456-.165.456-.227s.225-.245.5-.408c.275-.162.5-.403.5-.536 0-.132.074-.24.164-.24.09 0 .21-.188.268-.417.057-.229.171-.417.253-.417.082 0 .149-.218.149-.486 0-.267.073-.511.164-.541.102-.035.206-3.189.277-8.431l.113-8.375h-3.054l-.001.792v.791l-.424-.493c-.563-.655-1.239-1.088-1.7-1.089-.207-.001-.375-.076-.375-.168 0-.101-.775-.166-1.99-.166-1.147 0-2.034.07-2.094.166M350 35.312c0 .08-.3.193-.667.252-.366.059-.666.181-.666.271 0 .091-.115.165-.256.165a.41.41 0 00-.351.25c-.052.137-.173.25-.268.25-.31 0-1.625 1.578-1.625 1.951 0 .118-.071.216-.157.216-.086 0-.207.338-.269.752-.062.413-.179.793-.26.843-.196.121-.192 5.738.003 5.738.083 0 .203.375.266.833.063.459.174.834.248.834.073 0 .179.184.236.41.121.486 1.675 2.09 2.024 2.09.133 0 .242.056.242.126 0 .069.244.238.542.375 1.224.562 6.958.253 6.958-.375 0-.07.103-.126.229-.126.64 0 2.271-2.124 2.271-2.956 0-.208.075-.378.167-.378.091 0 .166-.262.166-.583v-.583H355.5v.5c0 .275-.067.5-.149.5-.081 0-.198.196-.258.436-.118.472-.467.897-.736.897-.092 0-.298.131-.458.292-.359.358-2.91.425-3.026.078a.322.322 0 00-.289-.203c-.317 0-1.359-1.054-1.506-1.522-.067-.217-.184-.435-.259-.483-.074-.048-.187-.592-.25-1.208l-.115-1.121h10.312l.204-.563c.145-.401.155-.692.034-1.011-.094-.246-.171-.93-.171-1.52s-.065-1.072-.145-1.072c-.08 0-.194-.306-.254-.679-.156-.974-1.653-2.988-2.222-2.988-.116 0-.212-.074-.212-.165 0-.09-.3-.212-.667-.271-.366-.059-.666-.172-.666-.252 0-.08-1.05-.145-2.334-.145-1.283 0-2.333.065-2.333.145m19.333-.001c0 .079-.488.183-1.084.23-1.034.083-2.007.559-2.455 1.2-.067.097-.123-.143-.125-.533l-.002-.708h-3.5v.583c0 .321.075.584.166.584.109 0 .167 2.416.167 6.916V50.5h3.122l.077-4.906c.047-3.072.141-4.988.251-5.125.097-.12.23-.396.296-.612.152-.492.598-1.024.86-1.024.11 0 .228-.086.264-.192.035-.105.51-.228 1.055-.272.545-.044 1.054-.164 1.129-.266.1-.135.162-.128.223.022.046.115.34.208.654.208H371V36.95c0-.854-.077-1.46-.2-1.583-.228-.228-1.467-.276-1.467-.056M254.167 43v7.5h3.166v-15h-3.166V43m74-7.164c0 .184.07.465.156.625.357.663.657 1.4.76 1.871.061.276.179.501.264.501.084 0 .153.114.153.253 0 .138.072.382.161.541.343.618.839 1.867.839 2.114 0 .142.067.259.148.259.082 0 .197.262.258.583.06.321.181.584.268.584.088 0 .159.12.159.266 0 .285.493 1.428.676 1.567.06.046.161.365.225.708.063.344.18.625.26.625.081 0 .199.242.264.537.065.294.18.651.255.791.221.41.617 1.388.746 1.839.066.229.186.46.268.513.083.053.035.315-.104.583-.14.268-.255.614-.255.769-.001.155-.071.325-.155.377-.085.052-.204.324-.266.604a4.62 4.62 0 01-.345.957c-.128.246-.234.61-.234.808-.001.199-.081.388-.179.42-.097.033-.22.377-.272.764l-.094.705h3.348l.112-.667c.062-.366.175-.666.25-.666.076 0 .188-.3.25-.667.062-.367.181-.667.265-.667.084 0 .152-.104.152-.231s.112-.445.249-.708c.137-.263.249-.604.25-.759.001-.155.067-.323.149-.373.081-.051.197-.355.257-.677.061-.322.182-.585.269-.585.088 0 .16-.094.16-.208.001-.115.106-.41.235-.656.128-.246.283-.677.345-.958.062-.281.164-.511.227-.511.144 0 .692-1.254.692-1.585 0-.137.075-.249.167-.249.092 0 .169-.093.172-.208.003-.115.151-.508.328-.875.177-.367.325-.798.328-.958.003-.161.074-.292.159-.292.084 0 .203-.225.263-.5s.179-.5.263-.5c.085 0 .154-.146.154-.323 0-.178.069-.367.154-.419.084-.052.203-.319.263-.593.06-.274.172-.498.249-.498.077 0 .191-.23.253-.512.062-.281.217-.712.345-.958.129-.246.234-.541.235-.655 0-.115.07-.209.154-.209.084 0 .206-.238.27-.529.064-.291.295-.849.513-1.24.595-1.066.598-1.064-1.441-1.064h-1.837l-.1.5c-.055.275-.159.5-.231.5-.072 0-.182.3-.244.667-.062.366-.18.666-.263.666-.082 0-.198.3-.256.667-.059.367-.169.667-.245.667-.076 0-.187.262-.247.583-.06.321-.176.583-.258.583-.081 0-.148.114-.148.253 0 .138-.07.382-.156.541-.357.664-.657 1.401-.76 1.871-.061.276-.17.502-.242.502-.073 0-.18.3-.239.667-.059.366-.181.666-.271.666-.091 0-.165.104-.165.231 0 1.014-.692 1.139-.936.17a4.85 4.85 0 00-.339-.89c-.122-.235-.223-.559-.224-.719-.001-.16-.076-.292-.168-.292-.091 0-.166-.145-.166-.323 0-.178-.07-.366-.154-.419-.085-.052-.204-.324-.266-.604a4.64 4.64 0 00-.345-.957c-.128-.245-.234-.532-.234-.636-.001-.104-.113-.404-.25-.667-.137-.262-.25-.608-.25-.769-.001-.16-.076-.291-.168-.291-.092 0-.167-.12-.167-.267 0-.285-.493-1.428-.675-1.567-.061-.046-.162-.364-.225-.708l-.115-.625h-1.826c-1.718 0-1.825.02-1.825.336m-59.43 1.809c.049.08.317.191.596.247.501.1.758.259 1.304.804.512.512.682.772.791 1.208.06.238.176.474.257.524.198.123.191 3.998-.008 4.366a3.215 3.215 0 00-.246.706c-.208.965-1.801 2.167-2.873 2.167-.328 0-.563.085-.571.208-.011.167-.03.167-.097 0-.047-.115-.305-.208-.574-.208-.787 0-2.461-1.201-2.477-1.778a.292.292 0 00-.18-.253c-.419-.139-.437-5.521-.02-5.79.082-.053.206-.276.274-.495.36-1.154 3.343-2.484 3.824-1.706m84.505.009c.052.084.327.205.61.267.598.131 1.065.548 1.235 1.104.066.216.181.469.256.562.075.094.188.563.251 1.042l.116.871h-7.152l.068-.542c.038-.298.175-.778.305-1.067.129-.288.236-.573.236-.633 0-.244 1.277-1.256 1.703-1.349.253-.056.502-.171.555-.255.052-.085.461-.154.908-.154.448 0 .857.069.909.154M232.833 41c0 .092.144.167.32.167.619 0 2.319 1.195 2.354 1.655.004.052.069.41.143.796.314 1.62-.505 3.339-1.738 3.648-.228.057-.456.171-.507.252-.05.082-1.474.149-3.165.149h-3.073v-6.834H230c1.778 0 2.833.062 2.833.167m89.323 2.5h.628l-.065.875c-.12 1.607-.238 2.292-.396 2.292-.086 0-.159.093-.162.208-.008.348-.773 1.105-1.232 1.22-.238.06-.473.175-.524.257-.119.194-2.072.193-2.072-.001 0-.081-.196-.198-.436-.258-.537-.134-.814-.399-.979-.934-.069-.225-.202-.505-.297-.623-.479-.598.827-2.434 1.883-2.645.276-.055.543-.166.593-.246.049-.08.572-.145 1.163-.145.741 0 1.077-.065 1.086-.208.011-.167.03-.167.098 0 .046.115.365.208.712.208m-99.489 23v7.167H225V59.333h-2.333V66.5m24-4.749v2.418l-.375-.209a3.485 3.485 0 01-.459-.293c-.693-.693-4.324-.658-4.332.041 0 .069-.108.125-.239.125-.343 0-1.359 1.01-1.511 1.5-.071.23-.213.47-.315.536-.124.079-.186 1.009-.186 2.797 0 1.789.062 2.719.186 2.798.102.066.242.3.312.522.138.442.807 1.181 1.069 1.181.092 0 .24.131.33.291.314.562 4.365.424 4.912-.166.524-.565.608-.571.608-.042 0 .405.033.417 1.166.417H249v-.5c0-.275-.075-.5-.167-.5-.108 0-.166-2.334-.166-6.667v-6.667h-2v2.418m39.666-1.251v1.167H289v-2.334h-2.667V60.5m16.167 6v7.167h2V59.333h-2V66.5m-28.227-5.582c-.263.137-.619.249-.792.249-.278 0-.314.134-.314 1.166V63.5h-1.834V65.333h1.834v3.88c0 4.779-.15 4.509 2.541 4.593l1.792.057V72h-.932c-.792 0-.946-.05-1.02-.333-.048-.184-.153-.334-.234-.334-.081 0-.147-1.35-.147-3v-3h2.333V63.5h-2.333v-1.417c0-1.538-.051-1.605-.894-1.165m-42.523 2.415c-.057.092-.215.167-.351.167-.137 0-.432.198-.657.441l-.409.441v-.441c0-.432-.023-.441-1.083-.441h-1.083v10.167h2.142l.054-3.375.054-3.375.472-.728c.26-.4.617-.765.792-.811.175-.046.319-.15.319-.231 0-.081.3-.147.667-.147.366 0 .666.075.666.167 0 .091.109.166.243.166.133 0 .433.191.666.425l.425.424V73.667H237v-4.178c0-2.839-.062-4.294-.193-4.542-.276-.522-.855-1.107-1.099-1.111-.114-.001-.209-.059-.209-.128-.005-.457-3.483-.805-3.749-.375m32.625.06c-.206.102-.375.243-.375.313s-.094.127-.209.127c-.116 0-.453.265-.75.589-1.013 1.103-.6 4.245.557 4.245.13 0 .235.07.235.156s.338.207.75.269c.413.062.75.173.75.247 0 .074.488.187 1.084.25.595.064 1.083.174 1.083.244 0 .071.15.167.333.215.489.128.456 1.112-.052 1.59-.664.623-2.71.452-2.885-.243-.054-.217-.166-.395-.247-.395-.082 0-.149-.15-.149-.333 0-.302-.111-.334-1.167-.334h-1.166v.75c0 .413.075.75.166.75.092 0 .167.147.167.326 0 .373.735 1.174 1.077 1.174.126 0 .26.094.298.209.052.154.713.208 2.542.208 1.83 0 2.49-.054 2.541-.208.039-.115.159-.209.269-.209.206 0 .489-.286.985-.995.39-.558.42-3.131.038-3.278-.138-.052-.25-.2-.25-.328s-.08-.232-.179-.232c-.098 0-.291-.113-.428-.25a.94.94 0 00-.572-.25c-.176 0-.321-.075-.321-.167 0-.091-.263-.166-.583-.166-.321 0-.584-.065-.584-.144 0-.08-.318-.188-.708-.242-2.37-.326-2.546-2.281-.206-2.281 1.079 0 1.581.373 1.581 1.174v.508l1.125-.049 1.125-.05.05-.875c.031-.533-.018-.875-.125-.875-.096 0-.175-.074-.175-.164 0-.254-.548-.836-.787-.836-.117 0-.213-.075-.213-.166 0-.092-.187-.167-.417-.167-.229 0-.416-.075-.416-.167 0-.229-3.314-.176-3.792.06m29.167 0c-.207.102-.375.243-.375.313s-.102.127-.226.127c-.358 0-1.108.784-1.108 1.159 0 .188-.079.341-.176.341-.103 0-.155.264-.125.625l.051.625 1.125.05c1.108.048 1.125.042 1.125-.375 0-.234.067-.425.149-.425.082 0 .193-.177.248-.395.175-.699 2.116-.758 2.789-.085.166.165.351.678.413 1.14l.111.84h-1.762c-.994 0-1.806.073-1.864.167-.057.092-.249.167-.427.167s-.323.067-.323.148c0 .082-.194.198-.431.257-1.044.262-1.736 1.497-1.736 3.1 0 .643.073 1.161.162 1.161.09 0 .279.225.421.5.143.275.363.5.491.5.127 0 .263.094.301.209.12.359 4.004.285 4.412-.084.396-.357.713-.376.713-.041 0 .197.236.25 1.125.25h1.125l-.057-4.375c-.031-2.406-.106-4.412-.166-4.458-.061-.046-.191-.234-.291-.417a1.349 1.349 0 00-.541-.498c-.199-.091-.362-.222-.362-.292 0-.07-.187-.127-.416-.127-.229 0-.417-.075-.417-.167 0-.229-3.48-.176-3.958.06M251 67.002c0 1.927.071 3.633.158 3.792.086.159.202.571.257.914.055.344.172.625.259.625.088 0 .159.113.159.25 0 .138.113.25.25.25.138 0 .25.074.25.164 0 .09.188.21.417.268.229.057.417.171.417.253 0 .082.787.149 1.75.149 1.055 0 1.75-.066 1.75-.167 0-.092.152-.167.338-.167.186 0 .382-.112.435-.25.143-.374.344-.302.462.167.099.396.164.417 1.29.417h1.187l-.106-.774c-.059-.425-.106-2.712-.106-5.083V63.5h-2.334v6.836l-.446.502c-1.175 1.318-3.389 1.29-3.667-.046-.052-.252-.161-.459-.241-.459-.08 0-.146-1.537-.146-3.416V63.5H251v3.502M278.833 64c0 .275.075.5.167.5.107 0 .167 1.641.167 4.591v4.591l1.125-.049 1.125-.05.083-3.513.083-3.513.548-.548c.5-.499.644-.549 1.625-.57l1.077-.022V63.5h-1.141c-1.11 0-2.192.335-2.192.679 0 .085-.075.154-.167.154-.091 0-.166-.187-.166-.416 0-.405-.034-.417-1.167-.417h-1.167v.5m7.834 4.583v5.084h2V63.5h-2v5.083m-41.834-3.434c0 .081.183.194.406.25.223.056.453.252.511.435.058.183.175.333.259.333.085 0 .202.301.261.67.059.369.172.711.252.76.189.117.189 1.903 0 1.903-.08 0-.186.305-.236.678-.103.77-1.033 1.822-1.611 1.822-.188 0-.342.075-.342.167 0 .091-.187.166-.416.166-.229 0-.417-.075-.417-.166 0-.092-.158-.167-.352-.167-.379 0-1.14-.628-1.145-.944-.002-.107-.097-.226-.211-.264-.349-.116-.278-3.745.085-4.375.158-.275.288-.593.289-.705 0-.113.188-.253.417-.31.23-.058.417-.172.417-.253 0-.082.412-.149.917-.149.504 0 .916.067.916.149m52.526 4.768c-.032.458-.126.858-.209.889-.082.03-.15.145-.15.254 0 .863-2.539 1.235-3.292.482-.701-.702-.428-1.73.522-1.969.24-.06.437-.172.437-.248 0-.154 1.047-.283 2.083-.258l.667.016-.058.834"/><path fill="#048094" d="M63.686 45.528a3.078 3.078 0 01-.115.583c-.091.29-.086.29.094.009.105-.164.157-.426.116-.584-.068-.258-.078-.258-.095-.008M48.553 57.792c2.092.026 5.467.026 7.5-.001 2.033-.026.322-.048-3.803-.048s-5.789.022-3.697.049"/><path fill="#048094" d="M63.686 45.528a3.078 3.078 0 01-.115.583c-.091.29-.086.29.094.009.105-.164.157-.426.116-.584-.068-.258-.078-.258-.095-.008M48.553 57.792c2.092.026 5.467.026 7.5-.001 2.033-.026.322-.048-3.803-.048s-5.789.022-3.697.049"/><path fill="#048094" d="M63.686 45.528a3.078 3.078 0 01-.115.583c-.091.29-.086.29.094.009.105-.164.157-.426.116-.584-.068-.258-.078-.258-.095-.008M48.553 57.792c2.092.026 5.467.026 7.5-.001 2.033-.026.322-.048-3.803-.048s-5.789.022-3.697.049"/></g></svg>